<?xml version="1.0" encoding="iso-8859-1"?>
<!-- Generator: Adobe Illustrator 19.0.0, SVG Export Plug-In . SVG Version: 6.00 Build 0)  -->
<svg version="1.1" id="Capa_1" xmlns="http://www.w3.org/2000/svg" xmlns:xlink="http://www.w3.org/1999/xlink" x="0px" y="0px"
	 viewBox="0 0 409.6 409.6" style="enable-background:new 0 0 409.6 409.6;" xml:space="preserve">
<circle style="fill:#E05B49;" cx="204.8" cy="204.8" r="204.8"/>
<path style="opacity:0.1;enable-background:new    ;" d="M397.049,275.531L225.754,104.236c-1.86-2.251-3.932-4.32-6.182-6.182
	l-0.017-0.017l-0.001,0.001c-7.979-6.597-18.215-10.565-29.378-10.565c-25.429,0-46.08,20.651-46.08,46.08
	c0,16.799,8.968,36.202,22.389,47.457l-0.001,0.001l8.964,8.965c-39.59,6.109-71.268,36.204-79.522,75.076
	c-1.285,6.008,0.946,11.752,5.063,15.574l-0.047,0.053l127.518,127.518C306.299,399.236,370.863,346.682,397.049,275.531z"/>
<path style="fill:#2F4859;" d="M268.003,285.17c10.609,0,18.664-9.759,16.458-20.136c-9.259-43.561-47.948-76.24-94.27-76.24
	s-85.01,32.679-94.27,76.24c-2.206,10.377,5.85,20.136,16.458,20.136H268.003z"/>
<path style="fill:#3A556A;" d="M95.921,265.034c9.259-43.561,47.948-76.24,94.27-76.24v96.377h-77.812
	C101.771,285.17,93.715,275.411,95.921,265.034z"/>
<path style="fill:#44C4A1;" d="M312.135,244.414c-0.126-1-0.876-1.821-1.693-1.833l-14.444-0.224
	c-1.628-4.169-3.805-8.022-6.459-11.488l6.523-12.58c0.376-0.725,0.009-1.774-0.812-2.359l-12.282-8.759
	c-0.821-0.586-1.933-0.592-2.496,0l-8.924,9.376c-4.354-1.986-9.031-3.319-13.911-3.905l-3.532-12.967
	c-0.215-0.788-1.196-1.31-2.196-1.185l-14.968,1.878c-1.001,0.126-1.822,0.874-1.835,1.691l-0.221,13.436
	c-4.356,1.685-8.367,3.976-11.955,6.775l-11.603-6.525c-0.712-0.401-1.773-0.069-2.386,0.731l-9.172,11.977
	c-0.613,0.801-0.657,1.911-0.085,2.494l9.137,9.309c-1.91,4.254-3.198,8.81-3.778,13.562l-13.676,3.939
	c-0.785,0.226-1.293,1.215-1.154,2.214l2.094,14.939c0.14,0.998,0.901,1.809,1.717,1.811l13.893,0.027
	c1.686,4.332,3.971,8.322,6.759,11.892l-7.487,12.445c-0.421,0.699-0.121,1.77,0.662,2.406l11.703,9.519
	c0.782,0.636,1.891,0.712,2.491,0.157l11.058-10.236c4.084,1.782,8.441,2.99,12.976,3.557l3.934,14.442
	c0.215,0.788,1.196,1.311,2.196,1.185l14.968-1.878c1.001-0.125,1.822-0.874,1.836-1.691l0.246-14.967
	c4.245-1.666,8.16-3.905,11.672-6.633l11.84,7.251c0.696,0.427,1.769,0.134,2.411-0.643l9.61-11.628
	c0.642-0.777,0.727-1.886,0.177-2.49l-9.771-10.724c1.857-4.184,3.113-8.657,3.688-13.32l13.955-3.815
	c0.788-0.216,1.31-1.197,1.183-2.198L312.135,244.414z"/>
<g transform="matrix(0.99223 -0.12445 0.12445 0.99223 -8.512 9.409)">
	
		<ellipse transform="matrix(-0.9922 -0.1244 0.1244 -0.9922 417.9969 587.3962)" style="fill:#31978C;" cx="227.345" cy="280.643" rx="31.326" ry="31.326"/>
	
		<ellipse transform="matrix(-0.9922 -0.1244 0.1244 -0.9922 417.9969 587.3962)" style="fill:#EBF0F3;" cx="227.345" cy="280.643" rx="18.5" ry="18.5"/>
</g>
<path style="fill:#3A556A;" d="M236.293,133.569c0,25.462-20.641,56.942-46.102,56.942s-46.102-31.481-46.102-56.942
	s20.641-46.102,46.102-46.102S236.293,108.107,236.293,133.569z"/>
<path style="fill:#2F4859;" d="M190.191,190.511c25.462,0,46.102-31.481,46.102-56.942s-20.641-46.102-46.102-46.102V190.511z"/>
<g>
</g>
<g>
</g>
<g>
</g>
<g>
</g>
<g>
</g>
<g>
</g>
<g>
</g>
<g>
</g>
<g>
</g>
<g>
</g>
<g>
</g>
<g>
</g>
<g>
</g>
<g>
</g>
<g>
</g>
</svg>
