<?xml version="1.0" encoding="iso-8859-1"?>
<!-- Generator: Adobe Illustrator 19.0.0, SVG Export Plug-In . SVG Version: 6.00 Build 0)  -->
<svg version="1.1" id="Capa_1" xmlns="http://www.w3.org/2000/svg" xmlns:xlink="http://www.w3.org/1999/xlink" x="0px" y="0px"
	 viewBox="0 0 384 384" style="enable-background:new 0 0 384 384;" xml:space="preserve">
<circle style="fill:#334D5C;" cx="192" cy="192" r="192"/>
<path style="opacity:0.1;enable-background:new    ;" d="M117.31,117.31c-41.267,41.267-41.266,108.13,0,149.397l113.39,113.391
	c74.988-15.348,134.05-74.41,149.397-149.398l-113.39-113.39C225.441,76.043,158.577,76.043,117.31,117.31z"/>
<circle style="fill:#E56353;" cx="192" cy="192" r="105.636"/>
<path style="fill:#D15241;" d="M171.195,145.246H147.11c-1.753,0-3.174,1.421-3.174,3.174v95.16c0,1.753,1.421,3.174,3.174,3.174
	h24.084c1.753,0,3.174-1.421,3.174-3.174v-95.16C174.368,146.667,172.948,145.246,171.195,145.246z"/>
<path style="fill:#FFFFFF;" d="M171.195,137.246H147.11c-1.753,0-3.174,1.421-3.174,3.174v95.16c0,1.753,1.421,3.174,3.174,3.174
	h24.084c1.753,0,3.174-1.421,3.174-3.174v-95.16C174.368,138.667,172.948,137.246,171.195,137.246z"/>
<path style="fill:#D15241;" d="M236.89,145.246h-24.084c-1.753,0-3.174,1.421-3.174,3.174v95.16c0,1.753,1.421,3.174,3.174,3.174
	h24.084c1.753,0,3.174-1.421,3.174-3.174v-95.16C240.064,146.667,238.643,145.246,236.89,145.246z"/>
<path style="fill:#FFFFFF;" d="M236.89,137.246h-24.084c-1.753,0-3.174,1.421-3.174,3.174v95.16c0,1.753,1.421,3.174,3.174,3.174
	h24.084c1.753,0,3.174-1.421,3.174-3.174v-95.16C240.064,138.667,238.643,137.246,236.89,137.246z"/>
<g>
</g>
<g>
</g>
<g>
</g>
<g>
</g>
<g>
</g>
<g>
</g>
<g>
</g>
<g>
</g>
<g>
</g>
<g>
</g>
<g>
</g>
<g>
</g>
<g>
</g>
<g>
</g>
<g>
</g>
</svg>
