<?xml version="1.0" encoding="iso-8859-1"?>
<!-- Generator: Adobe Illustrator 19.0.0, SVG Export Plug-In . SVG Version: 6.00 Build 0)  -->
<svg version="1.1" id="Layer_1" xmlns="http://www.w3.org/2000/svg" xmlns:xlink="http://www.w3.org/1999/xlink" x="0px" y="0px"
	 viewBox="0 0 481.882 481.882" style="enable-background:new 0 0 481.882 481.882;" xml:space="preserve">
<path style="fill:#44C4A1;" d="M0,240.941c0,133.12,107.821,240.941,240.941,240.941V0C107.821,0,0,107.821,0,240.941z"/>
<path style="fill:#3EA69B;" d="M240.941,0v481.882c133.12,0,240.941-107.821,240.941-240.941S374.061,0,240.941,0z"/>
<polygon style="fill:#31978C;" points="386.108,204.198 286.72,204.198 286.72,104.207 195.162,104.207 195.162,204.198 
	95.774,204.198 95.774,295.755 195.162,295.755 195.162,395.144 286.72,395.144 286.72,295.755 386.108,295.755 "/>
<polygon style="fill:#FFFFFF;" points="386.108,186.127 286.72,186.127 286.72,86.739 195.162,86.739 195.162,186.127 
	95.774,186.127 95.774,277.685 195.162,277.685 195.162,377.675 286.72,377.675 286.72,277.685 386.108,277.685 "/>
<g>
</g>
<g>
</g>
<g>
</g>
<g>
</g>
<g>
</g>
<g>
</g>
<g>
</g>
<g>
</g>
<g>
</g>
<g>
</g>
<g>
</g>
<g>
</g>
<g>
</g>
<g>
</g>
<g>
</g>
</svg>
