<?xml version="1.0" encoding="iso-8859-1"?>
<!-- Generator: Adobe Illustrator 19.0.0, SVG Export Plug-In . SVG Version: 6.00 Build 0)  -->
<svg version="1.1" id="Capa_1" xmlns="http://www.w3.org/2000/svg" xmlns:xlink="http://www.w3.org/1999/xlink" x="0px" y="0px"
	 viewBox="0 0 384 384" style="enable-background:new 0 0 384 384;" xml:space="preserve">
<circle style="fill:#EA8953;" cx="192" cy="192" r="192"/>
<path style="opacity:0.1;enable-background:new    ;" d="M381.034,225.46L269.782,114.208c-42.964-42.964-112.6-42.964-155.563,0
	c-42.964,42.964-42.964,112.599,0,155.564l111.259,111.259C304.674,367.097,367.107,304.66,381.034,225.46z"/>
<path style="fill:#44C4A1;" d="M82,192c0,60.752,49.249,110,110,110V82C131.249,82,82,131.249,82,192z"/>
<path style="fill:#3EA69B;" d="M192,82v220c60.751,0,110-49.248,110-110C302,131.249,252.751,82,192,82z"/>
<polygon style="fill:#31978C;" points="258.3,175.09 212.91,175.09 212.91,129.701 171.09,129.701 171.09,175.09 125.7,175.09 
	125.7,216.91 171.09,216.91 171.09,262.3 212.91,262.3 212.91,216.91 258.3,216.91 "/>
<polygon style="fill:#FFFFFF;" points="258.3,167.09 212.91,167.09 212.91,121.701 171.09,121.701 171.09,167.09 125.7,167.09 
	125.7,208.91 171.09,208.91 171.09,254.3 212.91,254.3 212.91,208.91 258.3,208.91 "/>
<g>
</g>
<g>
</g>
<g>
</g>
<g>
</g>
<g>
</g>
<g>
</g>
<g>
</g>
<g>
</g>
<g>
</g>
<g>
</g>
<g>
</g>
<g>
</g>
<g>
</g>
<g>
</g>
<g>
</g>
</svg>
