<?xml version="1.0" encoding="iso-8859-1"?>
<!-- Generator: Adobe Illustrator 19.0.0, SVG Export Plug-In . SVG Version: 6.00 Build 0)  -->
<svg version="1.1" id="Layer_1" xmlns="http://www.w3.org/2000/svg" xmlns:xlink="http://www.w3.org/1999/xlink" x="0px" y="0px"
	 viewBox="0 0 511.993 511.993" style="enable-background:new 0 0 511.993 511.993;" xml:space="preserve">
<circle style="fill:#0082D1;" cx="255.996" cy="255.996" r="255.996"/>
<path style="fill:#004DB1;" d="M510.72,281.707L297.202,68.189h-82.405v146.609l-146.609,0.001v82.405L281.706,510.72
	C402.564,498.669,498.669,402.564,510.72,281.707z"/>
<polygon style="fill:#FFFFFF;" points="443.811,297.202 443.811,214.798 297.202,214.798 297.202,68.189 214.799,68.189 
	214.798,214.798 68.189,214.799 68.189,297.202 214.798,297.202 214.798,443.811 297.201,443.811 297.202,297.202 "/>
<polygon style="fill:#E1E1E3;" points="297.202,214.798 297.202,68.189 256.219,68.189 256.219,443.811 297.201,443.811 
	297.202,297.202 443.811,297.201 443.811,214.798 "/>
<g>
</g>
<g>
</g>
<g>
</g>
<g>
</g>
<g>
</g>
<g>
</g>
<g>
</g>
<g>
</g>
<g>
</g>
<g>
</g>
<g>
</g>
<g>
</g>
<g>
</g>
<g>
</g>
<g>
</g>
</svg>
