<?xml version="1.0" encoding="iso-8859-1"?>
<!-- Generator: Adobe Illustrator 19.0.0, SVG Export Plug-In . SVG Version: 6.00 Build 0)  -->
<svg version="1.1" id="Layer_1" xmlns="http://www.w3.org/2000/svg" xmlns:xlink="http://www.w3.org/1999/xlink" x="0px" y="0px"
	 viewBox="0 0 408.759 408.759" style="enable-background:new 0 0 408.759 408.759;" xml:space="preserve">
<g>
	<path style="fill:#FFBE00;" d="M204.383,408.759c-58.121,0-113.674-24.869-152.417-68.227
		C18.46,303.057,0.005,254.703,0.005,204.378C0.005,91.683,91.688,0,204.383,0c50.319,0,98.674,18.453,136.164,51.964
		c43.346,38.761,68.207,94.314,68.207,152.415C408.755,317.074,317.074,408.759,204.383,408.759"/>
	<path style="fill:#F4502A;" d="M377.755,204.378c0,0.46,0,0.92-0.009,1.371c-0.129,17.589-2.89,34.56-7.9,50.529
		c-20.39,65.09-78.11,113.66-148.081,120.61c-5.279,0.54-10.62,0.82-16.019,0.861c-0.451,0.009-0.91,0.009-1.361,0.009
		c-51.39,0-97.559-22.361-129.299-57.881c-0.26-0.29-0.521-0.589-0.79-0.879c-26.95-30.56-43.29-70.681-43.29-114.62
		c0-95.751,77.621-173.381,173.379-173.381c43.951,0,84.071,16.35,114.631,43.291c0.29,0.27,0.589,0.53,0.879,0.791
		C355.406,106.838,377.755,152.987,377.755,204.378"/>
	<path style="fill:#C29100;" d="M74.364,319.072c3.671,4.157,7.537,8.136,11.587,11.923c-3.784-3.542-7.41-7.252-10.864-11.118
		C74.848,319.612,74.609,319.339,74.364,319.072 M52.683,288.39c0.004,0.008,0.005,0.01,0.01,0.018
		C52.689,288.401,52.686,288.397,52.683,288.39 M52.394,287.868c0.013,0.024,0.028,0.05,0.041,0.074
		C52.421,287.917,52.407,287.892,52.394,287.868 M51.949,287.055c0.02,0.037,0.042,0.077,0.062,0.115
		C51.991,287.132,51.969,287.092,51.949,287.055 M51.691,286.578c0.022,0.04,0.044,0.083,0.066,0.123
		C51.736,286.661,51.712,286.618,51.691,286.578 M51.434,286.1c0.049,0.091,0.097,0.182,0.146,0.272
		C51.53,286.28,51.484,286.193,51.434,286.1 M51.236,285.729c0.033,0.062,0.068,0.128,0.101,0.19
		C51.302,285.854,51.27,285.793,51.236,285.729 M50.992,285.269c0.04,0.075,0.082,0.156,0.122,0.231
		C51.073,285.422,51.033,285.347,50.992,285.269 M50.749,284.808c0.053,0.102,0.107,0.205,0.161,0.307
		C50.857,285.013,50.803,284.911,50.749,284.808 M50.539,284.406c0.045,0.086,0.09,0.173,0.135,0.259
		C50.629,284.578,50.584,284.492,50.539,284.406 M50.311,283.967c0.056,0.107,0.112,0.215,0.168,0.323
		C50.423,284.183,50.366,284.074,50.311,283.967 M50.071,283.502c0.06,0.116,0.116,0.227,0.176,0.342
		C50.189,283.73,50.129,283.616,50.071,283.502 M49.868,283.106c0.051,0.1,0.105,0.205,0.156,0.304
		C49.971,283.308,49.921,283.208,49.868,283.106 M49.644,282.666c0.06,0.119,0.119,0.234,0.18,0.354
		C49.764,282.901,49.705,282.785,49.644,282.666 M49.411,282.205c0.06,0.119,0.123,0.244,0.183,0.363
		C49.534,282.447,49.472,282.326,49.411,282.205 M49.2,281.784c0.058,0.117,0.118,0.236,0.177,0.353
		C49.318,282.02,49.259,281.901,49.2,281.784 M48.988,281.357c0.063,0.127,0.126,0.254,0.19,0.381
		C49.114,281.611,49.051,281.485,48.988,281.357 M48.757,280.891c0.064,0.131,0.13,0.263,0.194,0.394
		C48.886,281.151,48.823,281.024,48.757,280.891 M48.547,280.462c0.068,0.139,0.137,0.28,0.205,0.418
		C48.683,280.741,48.615,280.602,48.547,280.462 M48.34,280.038c0.068,0.139,0.134,0.275,0.202,0.414
		C48.473,280.312,48.408,280.178,48.34,280.038 M47.707,278.721c0.203,0.428,0.41,0.857,0.616,1.283
		C48.116,279.577,47.911,279.15,47.707,278.721 M152.31,38.954C81.994,61.062,31.004,126.759,31.004,204.37
		c0,26.604,5.991,51.812,16.698,74.34c-10.707-22.528-16.696-47.73-16.696-74.332C31.006,126.768,81.994,61.064,152.31,38.954"/>
	<path style="fill:#BA3D20;" d="M204.383,30.999c-18.142,0-35.638,2.788-52.073,7.955C81.994,61.064,31.006,126.768,31.006,204.378
		c0,26.601,5.989,51.803,16.696,74.332c0.003,0.005,0.003,0.006,0.005,0.011c0.204,0.429,0.409,0.856,0.616,1.283
		c0.005,0.011,0.011,0.022,0.016,0.033c0.068,0.14,0.133,0.274,0.202,0.414c0.001,0.003,0.004,0.008,0.005,0.011
		c0.068,0.14,0.137,0.279,0.205,0.418c0.001,0.003,0.004,0.007,0.005,0.01c0.065,0.133,0.129,0.261,0.194,0.394
		c0.012,0.024,0.024,0.048,0.036,0.073c0.064,0.128,0.126,0.253,0.19,0.381c0.008,0.017,0.015,0.029,0.023,0.045
		c0.058,0.117,0.118,0.236,0.177,0.353c0.012,0.024,0.022,0.044,0.034,0.068c0.061,0.121,0.122,0.242,0.183,0.363
		c0.016,0.033,0.033,0.066,0.05,0.098c0.06,0.119,0.119,0.235,0.18,0.354c0.015,0.03,0.029,0.057,0.044,0.086
		c0.052,0.103,0.103,0.202,0.156,0.304c0.015,0.03,0.032,0.062,0.047,0.092c0.058,0.114,0.118,0.229,0.176,0.342
		c0.021,0.041,0.042,0.082,0.063,0.123c0.055,0.107,0.112,0.216,0.168,0.323c0.02,0.038,0.041,0.079,0.06,0.116
		c0.045,0.086,0.09,0.172,0.135,0.259c0.025,0.048,0.05,0.095,0.075,0.144c0.054,0.103,0.107,0.205,0.161,0.307
		c0.028,0.054,0.053,0.101,0.082,0.154c0.041,0.078,0.081,0.153,0.122,0.231s0.08,0.151,0.122,0.229
		c0.034,0.064,0.067,0.125,0.101,0.19c0.033,0.061,0.064,0.12,0.097,0.182c0.05,0.093,0.096,0.18,0.146,0.272
		c0.037,0.069,0.074,0.137,0.111,0.206c0.021,0.04,0.045,0.083,0.066,0.123c0.065,0.12,0.127,0.234,0.192,0.354
		c0.02,0.037,0.042,0.077,0.062,0.115c0.127,0.234,0.254,0.465,0.382,0.698c0.013,0.024,0.027,0.05,0.041,0.074
		c0.082,0.148,0.166,0.3,0.248,0.448c0.004,0.007,0.006,0.011,0.01,0.018c6.114,11.011,13.394,21.29,21.671,30.664
		c0.246,0.267,0.484,0.54,0.723,0.806c3.454,3.866,7.08,7.576,10.864,11.118c2.121,1.984,4.294,3.917,6.513,5.794
		c-25.53-30.2-40.919-69.239-40.919-111.88c0-95.751,77.619-173.37,173.379-173.37c42.631,0,81.68,15.39,111.87,40.919
		C305.004,54.869,257.483,30.999,204.383,30.999"/>
	<path style="fill:#BA3D20;" d="M290.377,118.378l-172,172l87.369,87.371c5.4-0.041,10.74-0.321,16.019-0.861
		c69.97-6.951,127.69-55.521,148.081-120.61c5.01-15.969,7.771-32.94,7.9-50.529L290.377,118.378"/>
	<polyline style="fill:#1CA4BA;" points="290.377,118.378 290.377,290.378 118.377,290.378 118.377,118.378 290.377,118.378 	"/>
	<polyline style="fill:#157D8E;" points="215.376,142.607 201.266,202.648 142.606,215.377 217.607,290.378 290.377,290.378 
		290.377,217.608 215.376,142.607 	"/>
	<polygon style="fill:#FFFFFF;" points="266.148,193.378 215.379,193.379 215.379,142.61 193.378,142.61 193.378,193.379 
		142.61,193.379 142.61,215.38 193.379,215.379 193.379,266.148 215.379,266.148 215.379,215.379 266.148,215.379 	"/>
</g>
<g>
</g>
<g>
</g>
<g>
</g>
<g>
</g>
<g>
</g>
<g>
</g>
<g>
</g>
<g>
</g>
<g>
</g>
<g>
</g>
<g>
</g>
<g>
</g>
<g>
</g>
<g>
</g>
<g>
</g>
</svg>
