<?xml version="1.0" encoding="iso-8859-1"?>
<!-- Generator: Adobe Illustrator 19.0.0, SVG Export Plug-In . SVG Version: 6.00 Build 0)  -->
<svg version="1.1" id="Layer_1" xmlns="http://www.w3.org/2000/svg" xmlns:xlink="http://www.w3.org/1999/xlink" x="0px" y="0px"
	 viewBox="0 0 512 512" style="enable-background:new 0 0 512 512;" xml:space="preserve">
<path style="fill:#C1B8B5;" d="M399.473,120.056v46.845l-29.336,2.937c-2.948,12.828-8.012,24.857-14.797,35.694l18.68,22.832
	l-33.128,33.128l-22.832-18.68c-10.836,6.785-22.866,11.849-35.705,14.809l-2.926,29.325h-46.856l-2.926-29.325
	c-12.839-2.959-24.869-8.023-35.705-14.809l-22.832,18.68l-33.128-33.128l18.68-22.832c-6.785-10.836-11.849-22.866-14.797-35.694
	l-29.336-2.937v-46.845l29.336-2.937c2.948-12.839,8.012-24.869,14.797-35.705l-18.68-22.821l33.128-33.128l22.832,18.668
	c10.836-6.785,22.866-11.849,35.705-14.797L232.572,0h46.856l2.926,29.336c12.839,2.948,24.869,8.012,35.705,14.797l22.832-18.668
	l33.128,33.128l-18.68,22.821c6.785,10.836,11.849,22.866,14.797,35.705L399.473,120.056z M321.266,143.473
	c0-35.99-29.276-65.266-65.266-65.266s-65.266,29.276-65.266,65.266S220.01,208.738,256,208.738S321.266,179.462,321.266,143.473z"
	/>
<path style="fill:#7F7774;" d="M256,222.242l-11.253-13.503L256,188.484c24.857,0,45.011-20.154,45.011-45.011
	S280.857,98.462,256,98.462l-11.253-20.255L256,64.703c43.436,0,78.769,35.334,78.769,78.769S299.436,222.242,256,222.242z"/>
<path style="fill:#A99E9B;" d="M256,188.484v33.758c-43.436,0-78.769-35.334-78.769-78.769S212.564,64.703,256,64.703v33.758
	c-24.857,0-45.011,20.154-45.011,45.011S231.143,188.484,256,188.484z"/>
<path style="fill:#276AAD;" d="M337.582,338.933l-22.505,9.385L413.538,512h33.758C447.297,435.538,402.432,369.551,337.582,338.933
	z"/>
<path style="fill:#3891E9;" d="M413.538,512h-75.956l-22.505-81.841l22.505-81.841C383.111,381.851,413.538,442.604,413.538,512z"/>
<path style="fill:#D8D1D0;" d="M293.73,324.428l-11.962,1.587l55.814,22.303v-9.385C323.787,332.417,309.09,327.5,293.73,324.428z"
	/>
<path style="fill:#3891E9;" d="M174.418,338.933l22.505,86.534L174.418,512H64.703C64.703,435.538,109.568,369.551,174.418,338.933z
	"/>
<path style="fill:#F0EBEA;" d="M293.022,326.015l-74.752-1.587c-15.36,3.072-30.056,7.989-43.852,14.505V512h163.165V348.318
	C323.944,338.28,308.955,330.673,293.022,326.015z"/>
<path style="fill:#95341D;" d="M293.73,324.428c-7.562-1.517-15.283-2.586-23.138-3.178l-14.964,16.332v56.264l17.25-22.505
	L293.73,324.428z"/>
<g>
	<path style="fill:#E26142;" d="M270.593,321.25c-4.149-0.313-8.335-0.493-12.556-0.536c-0.675-0.011-1.362-0.011-2.037-0.011
		c-12.918,0-25.532,1.283-37.73,3.725l20.851,46.913l16.508,22.505l6.864-22.505L270.593,321.25z"/>
	<polygon style="fill:#E26142;" points="272.879,371.341 262.493,371.341 256,512 292.571,473.201 	"/>
</g>
<polygon style="fill:#F1866D;" points="262.493,371.341 239.121,371.341 219.429,473.201 256,512 270.066,473.201 "/>
<circle cx="371.341" cy="478.242" r="8.44"/>
<circle cx="371.341" cy="433.231" r="8.44"/>
<g>
</g>
<g>
</g>
<g>
</g>
<g>
</g>
<g>
</g>
<g>
</g>
<g>
</g>
<g>
</g>
<g>
</g>
<g>
</g>
<g>
</g>
<g>
</g>
<g>
</g>
<g>
</g>
<g>
</g>
</svg>
