<?xml version="1.0" encoding="iso-8859-1"?>
<!-- Generator: Adobe Illustrator 19.0.0, SVG Export Plug-In . SVG Version: 6.00 Build 0)  -->
<svg version="1.1" id="Capa_1" xmlns="http://www.w3.org/2000/svg" xmlns:xlink="http://www.w3.org/1999/xlink" x="0px" y="0px"
	 viewBox="0 0 512 512" style="enable-background:new 0 0 512 512;" xml:space="preserve">
<polygon style="fill:#CED6E0;" points="342.4,471.467 345.6,419.2 302.933,292.267 233.6,322.133 174.933,299.733 123.733,331.733 
	121.6,471.467 "/>
<g>
	<path style="fill:#344A5E;" d="M466.133,397.867v73.6h-156.8l19.2-171.733l85.333,26.667
		C445.867,337.067,466.133,365.867,466.133,397.867z"/>
	<path style="fill:#344A5E;" d="M137.6,299.733l19.2,171.733H0v-73.6C0,364.8,21.333,336,52.267,326.4L137.6,299.733z"/>
</g>
<polygon style="fill:#66C6B9;" points="268.8,471.467 249.6,369.067 217.6,369.067 198.4,471.467 "/>
<polygon style="fill:#4ABAA5;" points="249.6,369.067 263.467,354.133 233.6,322.133 202.667,354.133 217.6,369.067 "/>
<g>
	
		<ellipse transform="matrix(0.1616 0.9869 -0.9869 0.1616 277.8628 -13.9666)" style="fill:#FFD15C;" cx="147.151" cy="156.548" rx="27.735" ry="14.934"/>
	
		<ellipse transform="matrix(0.1616 -0.9869 0.9869 0.1616 114.6115 446.494)" style="fill:#FFD15C;" cx="320.081" cy="155.795" rx="27.735" ry="14.934"/>
</g>
<path style="fill:#F7B64C;" d="M179.2,203.733v51.2c0,0,19.2,51.2,54.4,67.2c35.2-16,54.4-67.2,54.4-67.2v-51.2L179.2,203.733
	L179.2,203.733z"/>
<path style="fill:#FFD15C;" d="M306.133,89.6c6.4-18.133-3.2-42.667-28.8-42.667c-2.133,0-4.267,0-6.4,1.067
	C259.2,40.533,247.467,36.267,233.6,36.267c-48,0-87.467,53.333-87.467,119.467S185.6,275.2,233.6,275.2
	s87.467-53.333,87.467-119.467C320,130.133,315.733,107.733,306.133,89.6z"/>
<path style="fill:#344A5E;" d="M315.733,154.667H313.6c0-9.6-6.4-70.4-18.133-87.467c-10.667-14.933-108.8-14.933-120.533,0
	c-12.8,16-19.2,77.867-18.133,87.467h-2.133c0,0-41.6-148.267,69.333-154.667c4.267,0,7.467,0,10.667,0l0,0
	c4.267,0,7.467,0,10.667,0C357.333,6.4,315.733,154.667,315.733,154.667z"/>
<g>
	<path style="fill:#E8EAE9;" d="M179.2,254.933l54.4,67.2L193.067,364.8c0,0-30.933-55.467-34.133-74.667L179.2,254.933z"/>
	<path style="fill:#E8EAE9;" d="M286.933,254.933l-54.4,67.2l40.533,42.667c0,0,30.933-55.467,34.133-74.667L286.933,254.933z"/>
</g>
<g>
	<polygon style="fill:#415A6B;" points="92.8,379.733 138.667,471.467 200.533,471.467 172.8,265.6 87.467,331.733 130.133,355.2 	
		"/>
	<polygon style="fill:#415A6B;" points="328.533,471.467 373.333,379.733 336,355.2 379.733,331.733 293.333,265.6 265.6,471.467 	
		"/>
</g>
<path style="fill:#F3705A;" d="M512,400v-26.667l-36.267-12.8c-2.133-6.4-4.267-12.8-7.467-19.2l16-34.133L466.133,288L432,304
	c-6.4-3.2-11.733-5.333-19.2-7.467L400,260.267h-26.667l-12.8,36.267c-6.4,2.133-12.8,4.267-19.2,7.467L307.2,288L288,307.2
	l16,34.133c-3.2,6.4-5.333,11.733-7.467,19.2l-36.267,12.8V400l36.267,12.8c2.133,6.4,4.267,12.8,7.467,19.2l-16,34.133l19.2,19.2
	l34.133-16c6.4,3.2,11.733,5.333,19.2,7.467l12.8,35.2H400l12.8-36.267c6.4-2.133,12.8-4.267,19.2-7.467l34.133,16l19.2-19.2
	l-16-34.133c3.2-6.4,5.333-11.733,7.467-19.2L512,400z M386.133,420.267C368,420.267,352,405.333,352,386.133
	C352,368,366.933,352,386.133,352c18.133,0,34.133,14.933,34.133,34.133C420.267,404.267,404.267,420.267,386.133,420.267z"/>
<path style="fill:#F05540;" d="M386.133,320C349.867,320,320,349.867,320,386.133s29.867,66.133,66.133,66.133
	s66.133-29.867,66.133-66.133S422.4,320,386.133,320z M386.133,420.267C368,420.267,352,405.333,352,386.133
	C352,368,366.933,352,386.133,352c18.133,0,34.133,14.933,34.133,34.133C420.267,404.267,404.267,420.267,386.133,420.267z"/>
<g>
</g>
<g>
</g>
<g>
</g>
<g>
</g>
<g>
</g>
<g>
</g>
<g>
</g>
<g>
</g>
<g>
</g>
<g>
</g>
<g>
</g>
<g>
</g>
<g>
</g>
<g>
</g>
<g>
</g>
</svg>
