<?xml version="1.0" encoding="iso-8859-1"?>
<!-- Generator: Adobe Illustrator 19.0.0, SVG Export Plug-In . SVG Version: 6.00 Build 0)  -->
<svg version="1.1" id="Layer_1" xmlns="http://www.w3.org/2000/svg" xmlns:xlink="http://www.w3.org/1999/xlink" x="0px" y="0px"
	 viewBox="0 0 512 512" style="enable-background:new 0 0 512 512;" xml:space="preserve">
<circle style="fill:#B1DCFF;" cx="255.996" cy="255.997" r="255.996"/>
<path style="fill:#84CAFF;" d="M512,256c0-2.213-0.028-4.419-0.084-6.618l-90.095-90.095h-13.378l-70.416-70.288
	C318.06,67.236,288.653,53.99,256.003,53.99l0,0c-59.781,0-108.693,44.403-108.693,104.184v1.113v24.554h0.537
	c-0.001,0.013-0.002,0.026-0.003,0.039c-12.149,2.275-20.77,13.629-19.418,26.114l2.092,19.316
	c0.759,7.005,4.509,12.994,9.834,16.838v17.435c0,2.191,1.094,4.136,2.764,5.319l65.612,65.005h-39.087
	c-52.923,0-97.801,36.216-111.04,85.095c1.485,1.796,2.996,3.569,4.529,5.323c0.178,0.204,0.359,0.403,0.538,0.606
	c1.355,1.54,2.727,3.066,4.118,4.573c0.244,0.265,0.492,0.529,0.738,0.793c1.38,1.483,2.776,2.951,4.191,4.4
	c0.201,0.206,0.401,0.413,0.604,0.618c1.543,1.572,3.104,3.125,4.687,4.657c46.07,44.582,108.824,72.028,177.996,72.028
	C397.385,512,512,397.385,512,256z"/>
<rect x="210.659" y="319.076" style="fill:#C06100;" width="90.675" height="80.874"/>
<rect x="255.996" y="319.076" style="fill:#994B00;" width="45.337" height="80.874"/>
<path style="fill:#E67500;" d="M364.156,183.879c-4.516-66.475-61.207-104.204-108.157-104.204
	c-46.949,0-103.641,37.729-108.157,104.204c-12.149,2.276-20.77,13.629-19.418,26.114l2.092,19.316
	c1.419,13.104,13.302,22.665,26.406,21.246l2.257-0.244c26.825,69.826,70.116,87.805,96.82,91.889
	c26.705-4.084,69.995-22.062,96.821-91.889l2.257,0.244c13.104,1.419,24.987-8.142,26.406-21.246l2.092-19.316
	C384.927,197.508,376.306,186.155,364.156,183.879z"/>
<g>
	<path style="fill:#C06100;" d="M255.999,342.199c26.705-4.084,69.995-22.062,96.821-91.889l2.257,0.244
		c13.104,1.419,24.987-8.142,26.406-21.246l2.092-19.316c1.352-12.484-7.269-23.838-19.418-26.114
		c-4.516-66.475-61.207-104.204-108.157-104.204c-0.001,0-0.002,0-0.003,0v262.524C255.997,342.198,255.998,342.199,255.999,342.199
		z"/>
	<rect x="183.816" y="195.206" style="fill:#C06100;" width="55.765" height="24.168"/>
</g>
<polygon style="fill:#994B00;" points="255.996,195.203 255.996,272.008 280.16,272.008 280.16,219.367 332.8,219.367 
	332.8,195.203 "/>
<rect x="231.901" y="292.902" style="fill:#C06100;" width="48.19" height="13.94"/>
<rect x="255.996" y="292.902" style="fill:#994B00;" width="24.095" height="13.94"/>
<path style="fill:#FDC000;" d="M147.732,270.113h-0.851c-3.592,0-6.531-2.938-6.531-6.531v-20.326c0-3.592,2.939-6.531,6.531-6.531
	h0.851c3.592,0,6.531,2.939,6.531,6.531v20.326C154.262,267.174,151.324,270.113,147.732,270.113z"/>
<path style="fill:#EBB300;" d="M365.118,270.113h-0.851c-3.592,0-6.531-2.938-6.531-6.531v-20.326c0-3.592,2.939-6.531,6.531-6.531
	h0.851c3.592,0,6.531,2.939,6.531,6.531v20.326C371.648,267.174,368.71,270.113,365.118,270.113z"/>
<path style="fill:#E02424;" d="M364.694,158.174c0-59.781-48.912-104.184-108.693-104.184l0,0
	c-59.781,0-108.693,44.403-108.693,104.184v25.667h217.386V158.174z"/>
<path style="fill:#C2001B;" d="M364.694,183.84v-25.665c0-59.781-48.912-104.184-108.693-104.184l0,0c-0.002,0-0.003,0-0.005,0
	v129.851h108.698V183.84z"/>
<rect x="147.308" y="159.282" style="fill:#004DB0;" width="274.512" height="24.554"/>
<rect x="255.996" y="159.282" style="fill:#003D8D;" width="165.823" height="24.555"/>
<path style="fill:#FFFFFF;" d="M453.399,419.003c-31.221,37.773-73.069,66.423-120.966,81.396
	c-24.137,7.534-49.81,11.598-76.433,11.598s-52.296-4.065-76.433-11.598c-47.897-14.973-89.745-43.624-120.966-81.396
	c13.239-48.88,58.116-85.095,111.04-85.095h41.022c0,25.046,20.292,45.348,45.337,45.358h0.01c24.659,0,44.7-19.686,45.327-44.188
	c0.01-0.387,0.01-0.784,0.01-1.17h41.012C395.282,333.908,440.161,370.123,453.399,419.003z"/>
<path style="fill:#E1E1E3;" d="M342.359,333.908h-41.012c0,0.387,0,0.784-0.01,1.17c-0.627,24.503-20.668,44.188-45.327,44.188
	h-0.01c-0.001,0-0.002,0-0.003,0v132.732c0.001,0,0.002,0,0.003,0c26.624,0,52.296-4.065,76.433-11.598
	c47.897-14.973,89.745-43.624,120.966-81.396C440.16,370.123,395.282,333.908,342.359,333.908z"/>
<path style="fill:#004DB0;" d="M179.567,333.908v166.492c-47.897-14.973-89.745-43.624-120.966-81.396
	c13.239-48.88,58.116-85.095,111.04-85.095H179.567z"/>
<path style="fill:#003D8D;" d="M453.399,419.003c-31.221,37.773-73.069,66.423-120.966,81.396V333.908h9.926
	C395.282,333.908,440.161,370.123,453.399,419.003z"/>
<polygon style="fill:#FFFFFF;" points="256.002,73.526 268.093,94.808 292.07,99.73 275.565,117.806 278.293,142.13 
	256.002,132.019 233.711,142.13 236.438,117.806 219.934,99.73 243.911,94.808 "/>
<polygon style="fill:#E1E1E3;" points="275.557,117.804 278.294,142.129 255.996,132.014 255.996,73.522 268.086,94.806 
	292.066,99.727 "/>
<path style="fill:#FDC000;" d="M255.999,452.075c-36.058,0-65.395-29.336-65.395-65.395v-52.769h13.355v52.769
	c0,28.695,23.345,52.04,52.039,52.04s52.039-23.345,52.039-52.04v-52.769h13.355v52.769
	C321.395,422.739,292.058,452.075,255.999,452.075z"/>
<path style="fill:#EBB300;" d="M321.396,333.908v52.777c0,36.059-29.34,65.389-65.399,65.389V438.72
	c28.692,0,52.035-23.343,52.035-52.035v-52.777H321.396z"/>
<g>
</g>
<g>
</g>
<g>
</g>
<g>
</g>
<g>
</g>
<g>
</g>
<g>
</g>
<g>
</g>
<g>
</g>
<g>
</g>
<g>
</g>
<g>
</g>
<g>
</g>
<g>
</g>
<g>
</g>
</svg>
