<?xml version="1.0" encoding="iso-8859-1"?>
<!-- Generator: Adobe Illustrator 19.0.0, SVG Export Plug-In . SVG Version: 6.00 Build 0)  -->
<svg version="1.1" id="Layer_1" xmlns="http://www.w3.org/2000/svg" xmlns:xlink="http://www.w3.org/1999/xlink" x="0px" y="0px"
	 viewBox="0 0 508 508" style="enable-background:new 0 0 508 508;" xml:space="preserve">
<circle style="fill:#90DFAA;" cx="254" cy="254" r="254"/>
<rect x="98.816" y="212.375" transform="matrix(-0.8062 0.5916 -0.5916 -0.8062 381.2398 451.873)" style="fill:#F9B54C;" width="35.599" height="151.996"/>
<path style="fill:#FFD05B;" d="M127.2,260.8l-40,29.2c-1.6,1.2-3.6,0.8-4.8-0.4L27.2,224c-1.2-1.6-1.2-4,0.8-5.2l49.2-36.4
	c1.6-1.2,4-0.8,5.2,0.8l45.6,72.4C129.2,257.6,128.8,259.6,127.2,260.8z"/>
<g>
	<circle style="fill:#F9B54C;" cx="77.2" cy="210.4" r="6.4"/>
	<circle style="fill:#F9B54C;" cx="91.6" cy="229.6" r="6.4"/>
	<circle style="fill:#F9B54C;" cx="105.6" cy="248.8" r="6.4"/>
	<circle style="fill:#F9B54C;" cx="54" cy="227.6" r="6.4"/>
	<circle style="fill:#F9B54C;" cx="68" cy="246.8" r="6.4"/>
	<circle style="fill:#F9B54C;" cx="82" cy="266" r="6.4"/>
</g>
<path style="fill:#2B3B4E;" d="M432.4,434c-44.8,45.6-108.4,74-178.8,74c-0.8,0-1.6,0-2.4,0l2.4-5.2l36.8-77.6l20.4-84.8l-10.4-21.6
	C302.4,320.4,432.4,327.2,432.4,434z"/>
<path style="fill:#324A5E;" d="M176,209.2L176,209.2L176,209.2L176,209.2z"/>
<path style="fill:#FFFFFF;" d="M306.4,371.2v-46c-3.6-2.4-6.4-5.6-8.4-9.2c-1.2-2.4-2-5.2-2-8l-4-51.2h-76.4l-2.8,38.4l0,0
	l-0.8,12.4c-0.4,7.6-5.2,14-11.6,18v45.6L306.4,371.2L306.4,371.2z"/>
<path style="fill:#84DBFF;" d="M212,352.8c0,0,40.4,24,83.2,0c0,0,16.4,27.6-41.6,146C253.2,498.8,201.2,396,212,352.8z"/>
<path style="fill:#E6E9EE;" d="M298,315.6L298,315.6c-63.6,48.4-84.8-18.4-85.2-20.4l0,0l2.8-38.4H292l4,51.2
	C296,310.4,296.8,313.2,298,315.6z"/>
<path style="fill:#2B3B4E;" d="M256.4,508c-0.8,0-1.6,0-2.4,0c-0.8,0-1.6,0-2.4,0c-0.8,0-1.6,0-2.4,0c-68.4-1.2-130-29.6-173.6-74
	c0-105.6,130-113.6,131.6-115.2l-10.4,21.6l20.4,84.8l36.8,77.6L256.4,508z"/>
<g>
	<path style="fill:#324A5E;" d="M328.4,353.2l25.6,31.6c0,0-96.4,123.2-96.8,122.8c-1.2-0.4-2,0-3.2,0c-0.8,0-1.6,0-2.4,0
		c-0.8,0-1.6,0-2.4,0C266,460.8,318,326,286.8,274.8c2,2,80,8.8,80,78.4L328.4,353.2L328.4,353.2z"/>
	<path style="fill:#324A5E;" d="M179.6,353.2L154,384.8c0,0,96.4,123.2,96.8,122.8c1.2-0.4,2,0,3.2,0c0.8,0,1.6,0,2.4,0s1.6,0,2.4,0
		c-17.2-46.8-69.2-182-38-232.8c-2,2-80,10-80,78.4L179.6,353.2L179.6,353.2z"/>
</g>
<path style="fill:#FFFFFF;" d="M328,190.8c-2-1.2-4.4-1.2-6.8,0c0-0.8,0-2,0-2.8c0-50.4-31.2-68.4-70-68.4s-70,18.4-70,68.4
	c0,0.8,0,2,0,2.8c-2.4-0.8-4.8-1.2-6.8,0c-5.6,3.2-6.4,15.2-1.2,27.2c4,9.6,10.4,15.6,16,16c11.6,36,35.2,67.6,62.4,67.6
	s50.8-31.2,62.4-67.6c5.6,0,12-6.4,16-16C334.4,206,333.6,194,328,190.8z"/>
<path style="fill:#FF7058;" d="M296,76.4c0,0,41.2,23.6,46.4,89.6c0,0,0.4,26-16,33.6c0,0,8.8,1.2,16-10.4c0,0-16,45.2,4.8,82.4
	c0,0,3.6,54,25.2,62.4c0,0-66.4-16.4-87.2-72c0,0,24.8-49.6,12.8-93.6l-2.8,12.4c0,0-4.4-39.2-34.8-41.2l4.4,6.8
	c0,0-57.2-22.4-54.8,49.2l-6.8-6.8c0,0-2.4,56,10,71.6l-10.4-3.2c0,0,6.4,50,26,69.6c0,0-60.4,4.4-72,48.4
	c0,0,19.2-108.8,13.6-161.2l-9.6,14c0,0-14.4-83.6,41.2-110.4l-22.8,0.4c0,0,49.2-68.8,118-20.8L296,76.4z"/>
<g>
</g>
<g>
</g>
<g>
</g>
<g>
</g>
<g>
</g>
<g>
</g>
<g>
</g>
<g>
</g>
<g>
</g>
<g>
</g>
<g>
</g>
<g>
</g>
<g>
</g>
<g>
</g>
<g>
</g>
</svg>
